<?xml version="1.0" encoding="iso-8859-1"?>
<!-- Uploaded to: SVG Repo, www.svgrepo.com, Generator: SVG Repo Mixer Tools -->
<svg version="1.1" id="Layer_1" xmlns="http://www.w3.org/2000/svg" xmlns:xlink="http://www.w3.org/1999/xlink" 
	 viewBox="0 0 512 512" xml:space="preserve">
<polygon style="fill:#009BDE;" points="503.872,391.811 146.215,391.811 146.215,34.152 412.038,34.152 503.872,125.987 "/>
<polygon style="fill:#77B8E8;" points="503.872,125.987 412.038,125.987 412.038,34.152 "/>
<g>
	<rect x="186.958" y="162.064" style="fill:#333E48;" width="276.178" height="25.739"/>
	<rect x="186.958" y="229.806" style="fill:#333E48;" width="276.178" height="25.739"/>
	<rect x="186.958" y="297.536" style="fill:#333E48;" width="174.051" height="25.739"/>
</g>
<polygon style="fill:#F7B334;" points="365.785,477.845 8.128,477.845 8.128,120.186 273.951,120.186 365.785,212.021 "/>
<polygon style="fill:#F4DBB2;" points="365.785,212.021 273.951,212.021 273.951,120.186 "/>
<g>
	<rect x="48.874" y="248.098" style="fill:#333E48;" width="276.178" height="25.739"/>
	<rect x="48.874" y="315.84" style="fill:#333E48;" width="276.178" height="25.74"/>
	<rect x="48.874" y="383.57" style="fill:#333E48;" width="174.051" height="25.739"/>
</g>
<path d="M511.986,125.713c-0.003-0.091-0.008-0.181-0.014-0.272c-0.024-0.347-0.062-0.691-0.128-1.031
	c0-0.003-0.001-0.007-0.001-0.01c-0.068-0.344-0.167-0.681-0.279-1.011c-0.028-0.085-0.06-0.168-0.09-0.251
	c-0.118-0.314-0.249-0.622-0.405-0.92c-0.009-0.016-0.014-0.033-0.023-0.048c-0.165-0.311-0.358-0.607-0.564-0.895
	c-0.052-0.073-0.105-0.143-0.159-0.215c-0.218-0.286-0.449-0.564-0.705-0.82l-91.834-91.835c-0.257-0.257-0.534-0.488-0.82-0.705
	c-0.072-0.054-0.143-0.108-0.216-0.159c-0.288-0.205-0.582-0.397-0.892-0.561c-0.021-0.011-0.041-0.02-0.062-0.029
	c-0.293-0.152-0.595-0.282-0.903-0.397c-0.088-0.034-0.174-0.065-0.263-0.094c-0.326-0.109-0.656-0.206-0.993-0.274
	c-0.021-0.004-0.041-0.005-0.062-0.01c-0.321-0.062-0.648-0.099-0.976-0.121c-0.102-0.008-0.202-0.012-0.302-0.015
	c-0.087-0.003-0.171-0.013-0.258-0.013H146.215c-4.49,0-8.128,3.639-8.128,8.128v77.906H8.128c-4.489,0-8.128,3.639-8.128,8.128
	v357.659c0,4.489,3.639,8.128,8.128,8.128h357.657c4.49,0,8.128-3.639,8.128-8.128V399.94h129.96c4.489,0,8.128-3.639,8.128-8.128
	V125.987C512,125.895,511.989,125.805,511.986,125.713z M420.166,53.775l64.085,64.085h-64.085V53.775z M357.657,469.718H16.255
	V128.314h249.568v83.707c0,4.489,3.638,8.128,8.128,8.128h83.706V469.718z M282.078,203.894v-64.085l64.085,64.085H282.078z
	 M495.745,383.684H373.912V212.021h-0.02c-0.001-2.114-0.807-4.193-2.361-5.747l-91.834-91.835c-1.555-1.554-3.634-2.36-5.748-2.361
	v-0.02H154.343V42.28h249.568v83.707c0,4.489,3.638,8.128,8.128,8.128h83.706V383.684z"/>
</svg>