<?xml version="1.0" encoding="UTF-8"?>
<svg width="512" height="512" viewBox="0 0 24 24" xmlns="http://www.w3.org/2000/svg">
    <path fill="#FF4A00" d="M12 0C5.373 0 0 5.373 0 12s5.373 12 12 12s12-5.373 12-12S18.627 0 12 0m3.24 16.85h-6.48c-.57 0-1.03-.46-1.03-1.03c0-.57.46-1.03 1.03-1.03h6.48c.57 0 1.03.46 1.03 1.03c0 .57-.46 1.03-1.03 1.03m0-3.77h-6.48c-.57 0-1.03-.46-1.03-1.03c0-.57.46-1.03 1.03-1.03h6.48c.57 0 1.03.46 1.03 1.03c0 .57-.46 1.03-1.03 1.03m0-3.76h-6.48c-.57 0-1.03-.46-1.03-1.03c0-.57.46-1.03 1.03-1.03h6.48c.57 0 1.03.46 1.03 1.03c0 .57-.46 1.03-1.03 1.03"/>
</svg>
